<svg width="33" height="20" viewBox="0 0 33 20" fill="none" xmlns="http://www.w3.org/2000/svg">
<path d="M13.4049 8.96151C15.1662 8.11963 16.0856 6.84575 16.0856 4.86292C16.0856 0.952645 13.1723 0 9.81035 0H0.555298V19.6289H10.0707C13.6375 19.6289 16.9884 17.9175 16.9884 13.9297C16.9884 11.465 15.8198 9.64276 13.4049 8.96151ZM4.86989 3.35087H8.91863C10.475 3.35087 11.8763 3.78842 11.8763 5.59402C11.8763 7.26115 10.7851 7.93132 9.24541 7.93132H4.86989V3.35087ZM9.48357 16.2947H4.86989V10.889H9.57219C11.4719 10.889 12.6738 11.681 12.6738 13.6915C12.6738 15.6743 11.2393 16.2947 9.48357 16.2947ZM29.3396 2.96317H21.3806V1.03019H29.3396V2.96317ZM32.4578 12.7278C32.4578 8.52396 29.9987 5.018 25.5401 5.018C21.2089 5.018 18.2678 8.27472 18.2678 12.5395C18.2678 16.9648 21.0538 20 25.5401 20C28.9352 20 31.1341 18.4713 32.192 15.2202H28.7469C28.3758 16.4331 26.8472 17.0756 25.6619 17.0756C23.3745 17.0756 22.1726 15.7353 22.1726 13.4589H32.4246C32.4412 13.2263 32.4578 12.977 32.4578 12.7278ZM22.1781 10.9997C22.3055 9.1332 23.5462 7.96455 25.4182 7.96455C27.3789 7.96455 28.3648 9.11659 28.5309 10.9997H22.1781Z" fill="white"/>
</svg>
