<svg width="25" height="24" viewBox="0 0 25 24" fill="none" xmlns="http://www.w3.org/2000/svg">
<path d="M21.9785 0H3.12136C2.43937 0 1.78532 0.270918 1.30308 0.753154C0.820844 1.23539 0.549927 1.88944 0.549927 2.57143L0.549927 21.4286C0.549927 22.1106 0.820844 22.7646 1.30308 23.2468C1.78532 23.7291 2.43937 24 3.12136 24H10.474V15.8405H7.09903V12H10.474V9.07286C10.474 5.74339 12.4562 3.90429 15.4921 3.90429C16.946 3.90429 18.4664 4.16357 18.4664 4.16357V7.43143H16.7912C15.1406 7.43143 14.6258 8.45571 14.6258 9.50625V12H18.3105L17.7212 15.8405H14.6258V24H21.9785C22.6605 24 23.3145 23.7291 23.7968 23.2468C24.279 22.7646 24.5499 22.1106 24.5499 21.4286V2.57143C24.5499 1.88944 24.279 1.23539 23.7968 0.753154C23.3145 0.270918 22.6605 0 21.9785 0Z" fill="white"/>
</svg>
