<svg width="328" height="28" viewBox="0 0 328 28" fill="none" xmlns="http://www.w3.org/2000/svg">
<g clip-path="url(#clip0)">
<path d="M0 0.603905V27.3908H7.4641V17.1202H19.414V10.8025H7.4641V7.30619H20.233V0.603905H0Z" fill="white"/>
<path d="M43.9078 24.6849L43.9005 24.5493L43.7575 21.1059C43.6461 18.2453 43.2014 15.9908 40.1032 14.8296C41.3415 14.3248 42.3994 13.4545 43.1381 12.3329C43.8767 11.2112 44.2616 9.89075 44.2421 8.54472C44.2421 4.36613 41.5971 0.598606 34.3527 0.598606H21.2842V27.3908H28.7483V18.1362H32.6381C34.7259 18.1362 36.1483 18.5929 36.2598 21.6325L36.3712 24.6828C36.3545 25.6121 36.5336 26.5343 36.8968 27.3887H44.5828C44.1448 26.5546 43.913 25.6264 43.9068 24.6828L43.9078 24.6849ZM33.2321 12.6439H28.7515V6.47238H33.2321C35.4324 6.47238 36.552 7.63781 36.552 9.56183C36.552 11.5155 35.4324 12.6439 33.2321 12.6439" fill="white"/>
<path d="M70.7418 26.3663L61.3297 0.603905H52.3685L43.9246 24.5482L42.9238 27.3897H50.5414L51.6621 23.8934H62.0761L63.1957 27.3897H71.116L70.7418 26.3663ZM53.6059 17.6881L55.5434 11.5155C55.9881 10.1223 56.4013 8.69729 56.8155 7.26381C57.1887 8.69729 57.6323 10.1244 58.0865 11.5155L60.0639 17.6881H53.6059Z" fill="white"/>
<path d="M87.7515 0.603905V4.96685C87.7515 9.18571 87.7904 12.7964 87.9418 16.7822C86.7854 14.4513 85.3683 11.9637 84.2802 10.1223L78.6474 0.603905H70.7628V27.3908H77.8569V23.0268C77.8569 18.8153 77.818 15.2375 77.6655 11.2506C78.7862 13.5487 79.9458 15.5023 81.3272 17.8713L86.9673 27.3897H94.8393V0.603905H87.7515Z" fill="white"/>
<path d="M114.847 16.8966C114.664 18.2401 113.986 19.4652 112.949 20.3295C111.912 21.1938 110.591 21.6342 109.247 21.5636C105.324 21.5636 103.385 18.7369 103.385 13.9989C103.385 9.30013 105.324 6.44165 109.247 6.44165C110.498 6.37168 111.734 6.74811 112.737 7.50487C113.741 8.26164 114.448 9.35038 114.734 10.58H122.273C121.303 3.80672 115.965 0.00423622 109.244 0.00423622C100.729 0.00423622 95.6215 5.42349 95.6215 13.9979C95.6215 22.5723 101.03 27.9989 109.244 27.9989C116.115 27.9989 121.454 24.0842 122.311 16.8956L114.847 16.8966Z" fill="white"/>
<path d="M130.527 0.603905H123.061V27.3908H130.527V0.603905Z" fill="white"/>
<path d="M145.224 10.9561L143.024 10.58C140.37 10.1234 139.139 9.56289 139.139 7.94612C139.139 6.55396 140.18 5.7212 142.532 5.7212C145.447 5.7212 146.638 6.73831 146.757 8.8435H153.772C153.47 2.97609 149.442 0.00529671 142.418 0.00529671C134.954 0.00529671 131.52 3.65627 131.52 8.28303C131.52 13.1344 134.729 15.96 140.742 16.9369L142.83 17.2738C146.079 17.8035 147.009 18.3333 147.009 19.8674C147.009 21.3729 145.817 22.2767 143.276 22.2767C140.408 22.2767 138.351 21.7469 138.279 18.595H131.105C131.105 24.0863 134.951 28.0011 142.985 28.0011C149.923 28.0011 154.71 25.2877 154.71 19.3069C154.71 14.5276 151.723 12.0453 145.224 10.9572" fill="white"/>
<path d="M177.937 11.5515L188.016 0.992734L188.391 0.600725H179.35L169.643 11.2083V0.600725H162.179V27.3866H169.643V19.718L172.669 16.6275L179.58 27.3866H188.39L188.015 26.8187L177.937 11.5515Z" fill="white"/>
<path d="M196.286 0.600725H188.811V27.3876H196.286V0.600725Z" fill="white"/>
<path d="M215.557 0.600725V4.96367C215.557 9.18253 215.597 12.7932 215.748 16.7801C214.592 14.4492 213.166 11.9616 212.087 10.1202L206.454 0.601785H198.569V27.3876H205.663V23.0247C205.663 18.8132 205.624 15.2354 205.473 11.2485C206.593 13.5465 207.752 15.5002 209.135 17.8692L214.777 27.3876H222.649V0.600725H215.557Z" fill="white"/>
<path d="M238.726 0.599667V27.3866H231.262V7.30089H224.185V0.599667H238.726Z" fill="white"/>
<path d="M257.465 0.600725V17.1965C257.465 20.0571 255.711 21.5594 252.986 21.5594C250.261 21.5594 248.506 20.0549 248.506 17.1965V0.600725H241.042V17.1159C241.042 24.3766 246.269 27.9958 252.989 27.9958C260.043 27.9958 264.936 24.3766 264.936 17.1159V0.600725H257.465Z" fill="white"/>
<path d="M283.417 0.600725L277.785 10.1191C276.705 11.9605 275.282 14.4503 274.123 16.779C274.274 12.7922 274.314 9.18147 274.314 4.96261V0.600725H267.221V27.3876H275.093L280.733 17.8692C282.116 15.5002 283.275 13.5465 284.395 11.2485C284.245 15.2354 284.205 18.8132 284.205 23.0247V27.3876H291.299V0.600725H283.417Z" fill="white"/>
<path d="M306.708 12.04V17.7612H311.594C311.289 18.9097 310.598 19.9163 309.64 20.6096C308.682 21.3029 307.515 21.64 306.337 21.5636C302.151 21.5636 299.84 18.7369 299.84 13.9989C299.84 9.26093 302.081 6.44165 305.925 6.44165C308.832 6.44165 310.628 7.71303 311.334 9.7483H318.952C318.094 3.65627 312.939 0.00105858 305.853 0.00105858C297.186 0.00105858 292.07 5.42031 292.07 13.9947C292.07 22.5691 297.154 27.9958 304.876 27.9958C308.459 27.9958 311.747 26.6343 313.463 23.8892L314.209 27.3855H319.293V12.04H306.708Z" fill="white"/>
<path d="M328.281 0.600725H320.814V27.3876H328.281V0.600725Z" fill="white"/>
</g>
<defs>
<clipPath id="clip0">
<rect width="328" height="28" fill="white"/>
</clipPath>
</defs>
</svg>
