<svg width="26" height="24" viewBox="0 0 26 24" fill="none" xmlns="http://www.w3.org/2000/svg">
<path d="M8.69092 19.3248C8.69092 19.424 8.57678 19.5034 8.43286 19.5034C8.26909 19.5183 8.15495 19.4389 8.15495 19.3248C8.15495 19.2255 8.26909 19.1461 8.41301 19.1461C8.56189 19.1312 8.69092 19.2106 8.69092 19.3248ZM7.14752 19.1014C7.11278 19.2007 7.21203 19.3148 7.36091 19.3446C7.48994 19.3942 7.63882 19.3446 7.6686 19.2454C7.69838 19.1461 7.60409 19.032 7.4552 18.9873C7.32617 18.9526 7.18226 19.0022 7.14752 19.1014ZM9.34103 19.0171C9.19711 19.0518 9.09786 19.1461 9.11275 19.2603C9.12764 19.3595 9.25667 19.424 9.40555 19.3893C9.54947 19.3545 9.64872 19.2603 9.63383 19.161C9.61894 19.0667 9.48495 19.0022 9.34103 19.0171ZM12.6065 0C5.72322 0 0.457794 5.22573 0.457794 12.109C0.457794 17.6126 3.92176 22.3222 8.86957 23.9798C9.5048 24.0939 9.72812 23.7019 9.72812 23.3793C9.72812 23.0716 9.71323 21.3744 9.71323 20.3322C9.71323 20.3322 6.23934 21.0766 5.50983 18.8533C5.50983 18.8533 4.94408 17.4092 4.13019 17.037C4.13019 17.037 2.99374 16.2578 4.2096 16.2727C4.2096 16.2727 5.44531 16.372 6.1252 17.5531C7.21203 19.4687 9.03334 18.9178 9.74301 18.5903C9.85715 17.7963 10.1797 17.2454 10.537 16.9179C7.76289 16.6102 4.96393 16.2082 4.96393 11.4341C4.96393 10.0693 5.34109 9.38447 6.13513 8.51103C6.0061 8.18846 5.58427 6.85846 6.26416 5.14136C7.30136 4.81878 9.68842 6.48129 9.68842 6.48129C10.681 6.20338 11.7479 6.05946 12.805 6.05946C13.8621 6.05946 14.929 6.20338 15.9216 6.48129C15.9216 6.48129 18.3086 4.81382 19.3458 5.14136C20.0257 6.86342 19.6039 8.18846 19.4749 8.51103C20.2689 9.38943 20.7552 10.0743 20.7552 11.4341C20.7552 16.2231 17.8322 16.6052 15.0581 16.9179C15.5146 17.3099 15.9017 18.0543 15.9017 19.2205C15.9017 20.893 15.8868 22.9624 15.8868 23.3694C15.8868 23.6919 16.1151 24.084 16.7454 23.9699C21.7081 22.3222 25.0728 17.6126 25.0728 12.109C25.0728 5.22573 19.4898 0 12.6065 0ZM5.28154 17.1164C5.21703 17.166 5.23191 17.2801 5.31628 17.3744C5.39568 17.4538 5.50983 17.4886 5.57434 17.424C5.63886 17.3744 5.62397 17.2603 5.5396 17.166C5.4602 17.0866 5.34606 17.0518 5.28154 17.1164ZM4.74557 16.7144C4.71083 16.7789 4.76046 16.8583 4.85971 16.9079C4.93911 16.9576 5.03837 16.9427 5.07311 16.8732C5.10785 16.8087 5.05822 16.7293 4.95897 16.6796C4.85971 16.6499 4.78031 16.6648 4.74557 16.7144ZM6.35349 18.4811C6.27408 18.5456 6.30386 18.6945 6.418 18.7888C6.53214 18.9029 6.67606 18.9178 6.74058 18.8384C6.80509 18.7739 6.77531 18.625 6.67606 18.5307C6.56688 18.4166 6.418 18.4017 6.35349 18.4811ZM5.78774 17.7516C5.70833 17.8012 5.70833 17.9302 5.78774 18.0444C5.86714 18.1585 6.00113 18.2082 6.06565 18.1585C6.14505 18.094 6.14505 17.965 6.06565 17.8508C5.99617 17.7367 5.86714 17.6871 5.78774 17.7516Z" fill="white"/>
</svg>
