<svg width="25" height="24" viewBox="0 0 25 24" fill="none" xmlns="http://www.w3.org/2000/svg">
<path d="M12.5553 5.8467C9.14928 5.8467 6.40199 8.594 6.40199 12C6.40199 15.406 9.14928 18.1533 12.5553 18.1533C15.9613 18.1533 18.7086 15.406 18.7086 12C18.7086 8.594 15.9613 5.8467 12.5553 5.8467ZM12.5553 16.0004C10.3542 16.0004 8.55484 14.2064 8.55484 12C8.55484 9.7936 10.3489 7.99955 12.5553 7.99955C14.7617 7.99955 16.5557 9.7936 16.5557 12C16.5557 14.2064 14.7563 16.0004 12.5553 16.0004ZM20.3955 5.595C20.3955 6.39295 19.7529 7.03024 18.9603 7.03024C18.1623 7.03024 17.525 6.38759 17.525 5.595C17.525 4.80241 18.1677 4.15977 18.9603 4.15977C19.7529 4.15977 20.3955 4.80241 20.3955 5.595ZM24.4709 7.05166C24.3799 5.12909 23.9408 3.42608 22.5323 2.02298C21.1292 0.619882 19.4262 0.180743 17.5036 0.0843468C15.5221 -0.0281156 9.58306 -0.0281156 7.60158 0.0843468C5.68437 0.175388 3.98137 0.614526 2.57291 2.01763C1.16445 3.42073 0.73067 5.12373 0.634274 7.0463C0.521811 9.02778 0.521811 14.9669 0.634274 16.9483C0.725314 18.8709 1.16445 20.5739 2.57291 21.977C3.98137 23.3801 5.67901 23.8193 7.60158 23.9157C9.58306 24.0281 15.5221 24.0281 17.5036 23.9157C19.4262 23.8246 21.1292 23.3855 22.5323 21.977C23.9354 20.5739 24.3745 18.8709 24.4709 16.9483C24.5834 14.9669 24.5834 9.03314 24.4709 7.05166ZM21.9111 19.0744C21.4934 20.1241 20.6847 20.9327 19.6297 21.3558C18.0499 21.9824 14.3011 21.8378 12.5553 21.8378C10.8094 21.8378 7.05534 21.977 5.48087 21.3558C4.43122 20.9381 3.62256 20.1294 3.19949 19.0744C2.57291 17.4946 2.7175 13.7458 2.7175 12C2.7175 10.2542 2.57827 6.50006 3.19949 4.92558C3.6172 3.87593 4.42586 3.06728 5.48087 2.6442C7.06069 2.01763 10.8094 2.16222 12.5553 2.16222C14.3011 2.16222 18.0552 2.02298 19.6297 2.6442C20.6794 3.06192 21.488 3.87058 21.9111 4.92558C22.5377 6.50541 22.3931 10.2542 22.3931 12C22.3931 13.7458 22.5377 17.4999 21.9111 19.0744Z" fill="white"/>
</svg>
