<svg width="25" height="24" viewBox="0 0 25 24" fill="none" xmlns="http://www.w3.org/2000/svg">
<path id="linkedin" d="M22.841 0H2.26423C1.32137 0 0.555298 0.776786 0.555298 1.73036V22.2696C0.555298 23.2232 1.32137 24 2.26423 24H22.841C23.7839 24 24.5553 23.2232 24.5553 22.2696V1.73036C24.5553 0.776786 23.7839 0 22.841 0ZM7.80887 20.5714H4.25173V9.11786H7.81423V20.5714H7.80887ZM6.0303 7.55357C4.88923 7.55357 3.9678 6.62679 3.9678 5.49107C3.9678 4.35536 4.88923 3.42857 6.0303 3.42857C7.16601 3.42857 8.0928 4.35536 8.0928 5.49107C8.0928 6.63214 7.17137 7.55357 6.0303 7.55357ZM21.1428 20.5714H17.5857V15C17.5857 13.6714 17.5589 11.9625 15.7374 11.9625C13.8839 11.9625 13.5999 13.4089 13.5999 14.9036V20.5714H10.0428V9.11786H13.4553V10.6821H13.5035C13.9803 9.78214 15.1428 8.83393 16.8732 8.83393C20.4732 8.83393 21.1428 11.2071 21.1428 14.2929V20.5714Z" fill="white"/>
</svg>
